<svg xmlns="http://www.w3.org/2000/svg" viewBox="0 0 64 64" fill="none">
  <rect width="64" height="64" rx="14" fill="#0c111a"/>
  <rect x="8" y="8" width="48" height="48" rx="12" fill="#0f1724" stroke="#1f2937" stroke-width="2"/>
  <path d="M38 14h-6c-4.418 0-8 3.582-8 8v16c0 3.866 3.134 7 7 7 3.866 0 7-3.134 7-7 0-1.657-1.343-3-3-3s-3 1.343-3 3c0 0.552-0.448 1-1 1s-1-0.448-1-1V22c0-1.105 0.895-2 2-2h6c1.657 0 3-1.343 3-3s-1.343-3-3-3Z" fill="#f6c86e" stroke="#f59e0b" stroke-width="1.5" stroke-linecap="round" stroke-linejoin="round"/>
</svg>
